<?xml version="1.0" encoding="UTF-8" standalone="no"?>
<!-- Created with Inkscape (http://www.inkscape.org/) -->

<svg
   xmlns:dc="http://purl.org/dc/elements/1.1/"
   xmlns:cc="http://creativecommons.org/ns#"
   xmlns:rdf="http://www.w3.org/1999/02/22-rdf-syntax-ns#"
   xmlns:svg="http://www.w3.org/2000/svg"
   xmlns="http://www.w3.org/2000/svg"
   xmlns:sodipodi="http://sodipodi.sourceforge.net/DTD/sodipodi-0.dtd"
   xmlns:inkscape="http://www.inkscape.org/namespaces/inkscape"
   width="120mm"
   height="133mm"
   viewBox="0 0 120 133"
   version="1.1"
   id="svg8"
   inkscape:version="0.92.2 (5c3e80d, 2017-08-06)"
   sodipodi:docname="back.svg">
  <defs
     id="defs2" />
  <sodipodi:namedview
     id="base"
     pagecolor="#ffffff"
     bordercolor="#666666"
     borderopacity="1.0"
     inkscape:pageopacity="0.0"
     inkscape:pageshadow="2"
     inkscape:zoom="0.7"
     inkscape:cx="186.91677"
     inkscape:cy="296.89205"
     inkscape:document-units="mm"
     inkscape:current-layer="layer1"
     showgrid="false"
     inkscape:window-width="1600"
     inkscape:window-height="868"
     inkscape:window-x="0"
     inkscape:window-y="32"
     inkscape:window-maximized="1" />
  <metadata
     id="metadata5">
    <rdf:RDF>
      <cc:Work
         rdf:about="">
        <dc:format>image/svg+xml</dc:format>
        <dc:type
           rdf:resource="http://purl.org/dc/dcmitype/StillImage" />
        <dc:title></dc:title>
      </cc:Work>
    </rdf:RDF>
  </metadata>
  <g
     inkscape:label="Layer 1"
     inkscape:groupmode="layer"
     id="layer1"
     transform="translate(0,-164)">
    <path
       style="color:#000000;clip-rule:nonzero;display:inline;overflow:visible;visibility:visible;opacity:1;isolation:auto;mix-blend-mode:normal;color-interpolation:sRGB;color-interpolation-filters:linearRGB;solid-color:#000000;solid-opacity:1;fill:#ffe405;fill-opacity:1;fill-rule:nonzero;stroke:none;stroke-width:0.68341553;stroke-linecap:butt;stroke-linejoin:miter;stroke-miterlimit:4;stroke-dasharray:none;stroke-dashoffset:0;stroke-opacity:1;color-rendering:auto;image-rendering:auto;shape-rendering:auto;text-rendering:auto;enable-background:accumulate"
       d="M 119.9999,163.99985 H 0 v 18.99988 h 57.249726 c 4.004223,-1.1e-4 7.250315,3.24598 7.250205,7.2502 -1.71e-4,4.00402 -3.246182,7.2498 -7.250205,7.24969 H 0 V 297 h 119.9999 z"
       id="rect815"
       inkscape:connector-curvature="0"
       sodipodi:nodetypes="cccccccccc" />
    <path
       inkscape:connector-curvature="0"
       style="color:#000000;clip-rule:nonzero;display:inline;overflow:visible;visibility:visible;opacity:0.2;isolation:auto;mix-blend-mode:normal;color-interpolation:sRGB;color-interpolation-filters:linearRGB;solid-color:#000000;solid-opacity:1;fill:#000000;fill-opacity:1;fill-rule:nonzero;stroke:none;stroke-width:2.1999414;stroke-linecap:butt;stroke-linejoin:miter;stroke-miterlimit:4;stroke-dasharray:none;stroke-dashoffset:0;stroke-opacity:1;color-rendering:auto;image-rendering:auto;shape-rendering:auto;text-rendering:auto;enable-background:accumulate"
       d="m 89.499964,177.0001 c -0.828355,-9e-5 -1.499973,0.67129 -1.500166,1.49965 -9.4e-5,0.82856 0.671608,1.50026 1.500166,1.50017 0.828558,9e-5 1.50026,-0.67161 1.500166,-1.50017 -1.93e-4,-0.82836 -0.671811,-1.49974 -1.500166,-1.49965 z m -9.500195,7.99951 v 27.00042 h 19.00039 v -27.00042 z m 9.500195,32.00011 c -0.828558,-9e-5 -1.50026,0.67161 -1.500166,1.50017 -9.4e-5,0.82856 0.671608,1.50026 1.500166,1.50017 0.828558,9e-5 1.50026,-0.67161 1.500166,-1.50017 9.4e-5,-0.82856 -0.671608,-1.50026 -1.500166,-1.50017 z m -34.50022,16.00006 c -1.108,0 -1.999879,0.89188 -1.999879,1.99988 0,1.108 0.891879,2.00039 1.999879,2.00039 h 50.999986 c 1.10799,0 2.0004,-0.89239 2.0004,-2.00039 0,-1.108 -0.89241,-1.99988 -2.0004,-1.99988 z m 0,8.00003 c -1.108,0 -1.999879,0.89188 -1.999879,1.99988 0,1.108 0.891879,2.00039 1.999879,2.00039 h 50.999986 c 1.10799,0 2.0004,-0.89239 2.0004,-2.00039 0,-1.108 -0.89241,-1.99988 -2.0004,-1.99988 z m 0,8.00003 c -1.108,0 -1.999879,0.89188 -1.999879,1.99988 0,1.108 0.891879,2.00039 1.999879,2.00039 h 50.999986 c 1.10799,0 2.0004,-0.89239 2.0004,-2.00039 0,-1.108 -0.89241,-1.99988 -2.0004,-1.99988 z m 0,8.00003 c -1.108,0 -1.999879,0.89187 -1.999879,1.99988 0,1.10799 0.891879,1.99987 1.999879,1.99987 h 50.999986 c 1.10799,0 2.0004,-0.89188 2.0004,-1.99987 0,-1.10801 -0.89241,-1.99988 -2.0004,-1.99988 z m 0,8.00002 c -1.108,0 -1.999879,0.89188 -1.999879,1.99988 0,1.108 0.891879,1.99988 1.999879,1.99988 h 50.999986 c 1.10799,0 2.0004,-0.89188 2.0004,-1.99988 0,-1.108 -0.89241,-1.99988 -2.0004,-1.99988 z m 0,8.00003 c -1.108,0 -1.999879,0.89189 -1.999879,1.99988 0,1.108 0.891879,1.99988 1.999879,1.99988 h 50.999986 c 1.10799,0 2.0004,-0.89188 2.0004,-1.99988 0,-1.10799 -0.89241,-1.99988 -2.0004,-1.99988 z m 0,8.00003 c -1.108,0 -1.999879,0.89188 -1.999879,1.99988 0,1.108 0.891879,1.99988 1.999879,1.99988 h 50.999986 c 1.10799,0 2.0004,-0.89188 2.0004,-1.99988 0,-1.108 -0.89241,-1.99988 -2.0004,-1.99988 z"
       id="rect1504-3"
       sodipodi:nodetypes="cccccccccccccccsssssssssssssssssssssssssssssssssssssssssssssssss" />
  </g>
</svg>
